name Walk5.mot
datacolumns 19
datarows 25
range 3.45900000 3.48300000
endheader

                time	   L_ground_force_vx	   L_ground_force_vy	   L_ground_force_vz	   L_ground_force_px	   L_ground_force_py	   L_ground_force_pz	   R_ground_force_vx	   R_ground_force_vy	   R_ground_force_vz	   R_ground_force_px	   R_ground_force_py	   R_ground_force_pz	   L_ground_torque_x	   L_ground_torque_y	   L_ground_torque_z	   R_ground_torque_x	   R_ground_torque_y	   R_ground_torque_z	
          3.45900000	          0.00000000	          0.00000000	         -0.00000000	         -0.00000000	          0.00000000	         -0.00000000	          4.76944357	         28.48433511	          0.31731407	          0.13913197	          0.00000000	          0.04894129	          0.00000000	          0.00000000	          0.00000000	          0.00000000	         -1.70056219	          0.00000000	
          3.46000000	          0.00000000	          0.00000000	         -0.00000000	         -0.00000000	          0.00000000	         -0.00000000	          4.09891955	         25.37873833	          0.36601371	          0.13300230	          0.00000000	          0.04668375	          0.00000000	          0.00000000	          0.00000000	          0.00000000	         -1.54829499	          0.00000000	
          3.46100000	          0.00000000	          0.00000000	         -0.00000000	         -0.00000000	          0.00000000	         -0.00000000	          3.46991741	         22.44129196	          0.40918963	          0.12689121	          0.00000000	          0.04444175	          0.00000000	          0.00000000	          0.00000000	          0.00000000	         -1.40312353	          0.00000000	
          3.46200000	          0.00000000	          0.00000000	         -0.00000000	         -0.00000000	          0.00000000	         -0.00000000	          2.88128365	         19.66879911	          0.44714831	          0.12082022	          0.00000000	          0.04222244	          0.00000000	          0.00000000	          0.00000000	          0.00000000	         -1.26499308	          0.00000000	
          3.46300000	          0.00000000	          0.00000000	         -0.00000000	         -0.00000000	          0.00000000	         -0.00000000	          2.33181028	         17.05771132	          0.48018992	          0.11480885	          0.00000000	          0.04003227	          0.00000000	          0.00000000	          0.00000000	          0.00000000	         -1.13382694	          0.00000000	
          3.46400000	          0.00000000	          0.00000000	         -0.00000000	         -0.00000000	          0.00000000	         -0.00000000	          1.82024405	         14.60417198	          0.50860767	          0.10887477	          0.00000000	          0.03787705	          0.00000000	          0.00000000	          0.00000000	          0.00000000	         -1.00952862	          0.00000000	
          3.46500000	          0.00000000	          0.00000000	         -0.00000000	         -0.00000000	          0.00000000	         -0.00000000	          1.34529504	         12.30405700	          0.53268731	          0.10303381	          0.00000000	          0.03576195	          0.00000000	          0.00000000	          0.00000000	          0.00000000	         -0.89198389	          0.00000000	
          3.46600000	          0.00000000	          0.00000000	         -0.00000000	         -0.00000000	          0.00000000	         -0.00000000	          0.90564461	         10.15301320	          0.55270671	          0.09730013	          0.00000000	          0.03369155	          0.00000000	          0.00000000	          0.00000000	          0.00000000	         -0.78106270	          0.00000000	
          3.46700000	          0.00000000	          0.00000000	         -0.00000000	         -0.00000000	          0.00000000	         -0.00000000	          0.49995288	          8.14649424	          0.56893541	          0.09168628	          0.00000000	          0.03166986	          0.00000000	          0.00000000	          0.00000000	          0.00000000	         -0.67662104	          0.00000000	
          3.46800000	          0.00000000	          0.00000000	         -0.00000000	         -0.00000000	          0.00000000	         -0.00000000	          0.12686554	          6.27979416	          0.58163442	          0.08620328	          0.00000000	          0.02970040	          0.00000000	          0.00000000	          0.00000000	          0.00000000	         -0.57850266	          0.00000000	
          3.46900000	          0.00000000	          0.00000000	         -0.00000000	         -0.00000000	          0.00000000	         -0.00000000	         -0.21497976	          4.54807882	          0.59105583	          0.08086073	          0.00000000	          0.02778616	          0.00000000	          0.00000000	          0.00000000	          0.00000000	         -0.48654067	          0.00000000	
          3.47000000	          0.00000000	          0.00000000	         -0.00000000	         -0.00000000	          0.00000000	         -0.00000000	         -0.52694759	          2.94641500	          0.59744274	          0.07566687	          0.00000000	          0.02592967	          0.00000000	          0.00000000	          0.00000000	          0.00000000	         -0.40055916	          0.00000000	
          3.47100000	          0.00000000	          0.00000000	         -0.00000000	         -0.00000000	          0.00000000	         -0.00000000	         -0.81039940	          1.46979750	          0.60102901	          0.07062868	          0.00000000	          0.02413305	          0.00000000	          0.00000000	          0.00000000	          0.00000000	         -0.32037453	          0.00000000	
          3.47200000	          0.00000000	          0.00000000	         -0.00000000	         -0.00000000	          0.00000000	         -0.00000000	         -1.06668864	          0.11317414	          0.60203921	          0.06575198	          0.00000000	          0.02239800	          0.00000000	          0.00000000	          0.00000000	          0.00000000	         -0.24579691	          0.00000000	
          3.47300000	          0.00000000	          0.00000000	         -0.00000000	         -0.00000000	          0.00000000	         -0.00000000	         -1.29715634	         -1.12853111	          0.60068855	          0.06104145	          0.00000000	          0.02072582	          0.00000000	          0.00000000	          0.00000000	          0.00000000	         -0.17663138	          0.00000000	
          3.47400000	          0.00000000	          0.00000000	         -0.00000000	         -0.00000000	          0.00000000	         -0.00000000	         -1.50312707	         -2.26039695	          0.59718287	          0.05650076	          0.00000000	          0.01911751	          0.00000000	          0.00000000	          0.00000000	          0.00000000	         -0.11267915	          0.00000000	
          3.47500000	          0.00000000	          0.00000000	         -0.00000000	         -0.00000000	          0.00000000	         -0.00000000	         -1.68590533	         -3.28748533	          0.59171865	          0.05213265	          0.00000000	          0.01757370	          0.00000000	          0.00000000	          0.00000000	          0.00000000	         -0.05373861	          0.00000000	
          3.47600000	          0.00000000	          0.00000000	         -0.00000000	         -0.00000000	          0.00000000	         -0.00000000	         -1.84677239	         -4.21482373	          0.58448304	          0.04793893	          0.00000000	          0.01609474	          0.00000000	          0.00000000	          0.00000000	          0.00000000	          0.00039362	          0.00000000	
          3.47700000	          0.00000000	          0.00000000	         -0.00000000	         -0.00000000	          0.00000000	         -0.00000000	         -1.98698333	         -5.04738913	          0.57565401	          0.04392062	          0.00000000	          0.01468072	          0.00000000	          0.00000000	          0.00000000	          0.00000000	          0.04992182	          0.00000000	
          3.47800000	          0.00000000	          0.00000000	         -0.00000000	         -0.00000000	          0.00000000	         -0.00000000	         -2.10776461	         -5.79009343	          0.56540040	          0.04007801	          0.00000000	          0.01333144	          0.00000000	          0.00000000	          0.00000000	          0.00000000	          0.09505028	          0.00000000	
          3.47900000	          0.00000000	          0.00000000	         -0.00000000	         -0.00000000	          0.00000000	         -0.00000000	         -2.21031180	         -6.44777051	          0.55388208	          0.03641066	          0.00000000	          0.01204651	          0.00000000	          0.00000000	          0.00000000	          0.00000000	          0.13598256	          0.00000000	
          3.48000000	          0.00000000	          0.00000000	         -0.00000000	         -0.00000000	          0.00000000	         -0.00000000	         -2.29578776	         -7.02516451	          0.54125010	          0.03291754	          0.00000000	          0.01082531	          0.00000000	          0.00000000	          0.00000000	          0.00000000	          0.17292076	          0.00000000	
          3.48100000	          0.00000000	          0.00000000	         -0.00000000	         -0.00000000	          0.00000000	         -0.00000000	         -2.36532094	         -7.52691961	          0.52764689	          0.02959704	          0.00000000	          0.00966703	          0.00000000	          0.00000000	          0.00000000	          0.00000000	          0.20606489	          0.00000000	
          3.48200000	          0.00000000	          0.00000000	         -0.00000000	         -0.00000000	          0.00000000	         -0.00000000	         -2.42000413	         -7.95757093	          0.51320643	          0.02644701	          0.00000000	          0.00857071	          0.00000000	          0.00000000	          0.00000000	          0.00000000	          0.23561230	          0.00000000	
          3.48300000	          0.00000000	          0.00000000	         -0.00000000	         -0.00000000	          0.00000000	         -0.00000000	         -2.46089329	         -8.32153666	          0.49805446	          0.02346488	          0.00000000	          0.00753521	          0.00000000	          0.00000000	          0.00000000	          0.00000000	          0.26175715	          0.00000000	
